------------------------------:TPB IS BENEDICTION TO ME :--------------------------


Screen Link :---

 
http://www.shotpix.com/images/56660443261741311398.jpg



General Info : ---

Format                           : Matroska
File size                        : 350 MiB
Duration                         : 1h 40mn
Overall bit rate                 : 485 Kbps
Movie name                       : P
Encoded date                     : UTC 2011-06-08 23:12:20
Writing application              : mkvmerge v4.6.0 ('Still Crazy After All These Years') built on Mar 10 2011 02:50:32
Writing library                  : libebml v1.2.0 + libmatroska v1.1.0

Video
ID                               : 1
Format                           : AVC
Format/Info                      : Advanced Video Codec
Format profile                   : High@L4.0
Format settings, CABAC           : Yes
Format settings, ReFrames        : 3 frames
Format settings, GOP             : M=4, N=24
Codec ID                         : V_MPEG4/ISO/AVC
Duration                         : 1:40:50
Bit rate mode                    : Variable
Bit rate                         : 371 Kbps
Maximum bit rate                 : 25.0 Mbps
Width                            : 592 pixels
Height                           : 320 pixels
Display aspect ratio             : 1.850
Frame rate                       : 23.976 fps
Color space                      : YUV
Chroma subsampling               : 4:2:0
Bit depth                        : 8 bits
Scan type                        : Progressive
Bits/(Pixel*Frame)               : 0.082
Stream size                      : 262 MiB (75%)

Audio
ID                               : 2
Format                           : MPEG Audio
Format version                   : Version 1
Format profile                   : Layer 3
Mode                             : Joint stereo
Mode extension                   : MS Stereo
Codec ID                         : A_MPEG/L3
Codec ID/Hint                    : MP3
Duration                         : 1:40:50
Bit rate mode                    : Variable
Bit rate                         : 112 Kbps
Minimum bit rate                 : 32.0 Kbps
Channel(s)                       : 2 channels
Sampling rate                    : 48.0 KHz
Compression mode                 : Lossy
Stream size                      : 81.0 MiB (23%)




------------------------------:TPB IS BENEDICTION TO ME :--------------------------





